<svg xmlns="http://www.w3.org/2000/svg" viewBox="0 0 760 200" width="760" height="200">
  <g transform="translate(0 24)">
    <circle cx="80" cy="78" r="47.5" fill="none" stroke="#1F6FEB" stroke-width="2.2" stroke-linecap="round" stroke-dasharray="219 80" transform="rotate(118 80 78)"></circle>
    <circle cx="80" cy="28.6" r="7.5" fill="#4C9AF5"></circle>
    <circle cx="36.9" cy="100.6" r="6.6" fill="#1F6FEB"></circle>
    <circle cx="122.5" cy="112.5" r="7.2" fill="#12245E"></circle>
    <path d="M46.9 125 C 59.4 116.3 73.75 116.3 83.75 125 S 110 133.75 130 123.75" fill="none" stroke="#2563EB" stroke-width="5.6" stroke-linecap="round"></path>
    <path d="M49.4 132.2 C 61.25 125.3 73.75 125.3 83.1 132.2" fill="none" stroke="#F7B500" stroke-width="5.6" stroke-linecap="round"></path>
    <path d="M56.25 93.75 L80 108.1 L103.75 93.75" fill="none" stroke="#12245E" stroke-width="11.9" stroke-linecap="round" stroke-linejoin="round"></path>
    <path d="M56.25 81.9 L80 96.25 L103.75 81.9" fill="none" stroke="#1F6FEB" stroke-width="11.9" stroke-linecap="round" stroke-linejoin="round"></path>
    <rect x="61.9" y="42.5" width="36.25" height="36.25" rx="6.9" fill="#4C9AF5" transform="rotate(45 80 60.6)"></rect>
  </g>
  <text x="196" y="128" font-family="&#39;Plus Jakarta Sans&#39;,&#39;Segoe UI&#39;,Arial,sans-serif" font-weight="800" font-size="104" letter-spacing="-3"><tspan fill="#12245E">Mare</tspan><tspan fill="#1F6FEB">KVS</tspan></text>
</svg>